<?xml version="1.0" standalone="no"?>
<!DOCTYPE svg PUBLIC "-//W3C//DTD SVG 20010904//EN"
 "http://www.w3.org/TR/2001/REC-SVG-20010904/DTD/svg10.dtd">
<svg version="1.0" xmlns="http://www.w3.org/2000/svg"
 width="260.000000pt" height="260.000000pt" viewBox="0 0 260.000000 260.000000"
 preserveAspectRatio="xMidYMid meet">
<metadata>
Created by potrace 1.14, written by Peter Selinger 2001-2017
</metadata>
<g transform="translate(0.000000,260.000000) scale(0.100000,-0.100000)"
fill="#000000" stroke="none">
<path d="M935 2188 c-3 -8 -4 -79 -3 -158 3 -137 4 -145 23 -145 19 0 20 7 20
155 0 140 -2 155 -18 158 -9 2 -19 -3 -22 -10z"/>
<path d="M476 1994 c-4 -12 24 -47 96 -120 102 -102 130 -120 142 -88 5 12
-23 47 -96 120 -100 102 -130 120 -142 88z"/>
<path d="M1292 1904 c-86 -87 -102 -107 -92 -119 7 -8 18 -15 24 -15 7 0 58
47 114 104 73 73 101 108 96 120 -12 32 -40 14 -142 -90z"/>
<path d="M834 1830 c-90 -36 -167 -119 -195 -212 -15 -50 -13 -147 5 -197 29
-79 104 -161 175 -191 28 -11 29 -14 19 -43 -14 -42 -16 -44 -64 -50 -132 -18
-236 -95 -293 -217 -34 -74 -36 -201 -4 -272 32 -71 103 -141 176 -174 l62
-28 600 0 c558 0 604 1 655 18 225 76 347 305 290 545 -16 65 -53 132 -107
192 -27 30 -64 85 -82 123 -59 122 -176 216 -307 247 -61 14 -155 13 -202 -2
-19 -6 -82 -12 -138 -13 -111 -1 -137 -11 -108 -41 12 -12 29 -16 60 -13 l42
3 -59 -62 c-32 -34 -59 -66 -59 -73 0 -7 -11 -5 -30 6 -18 11 -26 22 -21 28
15 21 28 93 24 142 -9 122 -73 217 -186 276 -61 31 -184 35 -253 8z"/>
<path d="M295 1548 c-11 -7 -13 -14 -6 -26 14 -24 283 -29 307 -5 30 30 0 38
-146 39 -76 0 -146 -4 -155 -8z"/>
<path d="M551 1199 c-98 -98 -122 -139 -83 -139 24 0 224 199 220 219 -7 37
-39 18 -137 -80z"/>
</g>
</svg>
